<svg width="136" height="76" viewBox="0 0 136 76" fill="none" xmlns="http://www.w3.org/2000/svg">
    <rect x="18" y="9" width="98" height="58" stroke="#AAAAAA" stroke-width="2"/>
    <line x1="18" y1="10" x2="18" y2="68" stroke="#080810" stroke-width="2"/>
    <rect x="14" y="61" width="10" height="10" fill="#080810"/>
    <rect x="14" y="5" width="10" height="10" fill="#080810"/>
    <rect x="110" y="5" width="10" height="10" fill="#080810"/>
    <rect x="110" y="61" width="10" height="10" fill="#080810"/>
    <path d="M7.50595 76L6.70795 73.802H2.29795L1.49995 76H0.113953L3.76795 66.2H5.23795L8.89195 76H7.50595ZM2.74595 72.584H6.25995L4.49595 67.754L2.74595 72.584Z" fill="#080810"/>
    <path d="M130.348 66.2C131.682 66.2 132.788 66.676 133.666 67.628C134.552 68.5707 134.996 69.728 134.996 71.1C134.996 72.472 134.552 73.634 133.666 74.586C132.788 75.5287 131.682 76 130.348 76H126.526V66.2H130.348ZM130.348 74.768C131.346 74.768 132.163 74.418 132.798 73.718C133.432 73.018 133.75 72.1453 133.75 71.1C133.75 70.0547 133.432 69.182 132.798 68.482C132.163 67.782 131.346 67.432 130.348 67.432H127.828V74.768H130.348Z" fill="#080810"/>
    <path d="M6.84336 4.918C7.29136 5.13267 7.64603 5.44067 7.90736 5.842C8.17803 6.24333 8.31336 6.70533 8.31336 7.228C8.31336 8.012 8.03803 8.67 7.48736 9.202C6.93669 9.734 6.26469 10 5.47136 10H1.24336V0.199999H5.16336C5.92869 0.199999 6.57736 0.456666 7.10936 0.969999C7.64136 1.48333 7.90736 2.118 7.90736 2.874C7.90736 3.742 7.55269 4.42333 6.84336 4.918ZM5.16336 1.418H2.54536V4.414H5.16336C5.57403 4.414 5.91936 4.26933 6.19936 3.98C6.47936 3.69067 6.61936 3.336 6.61936 2.916C6.61936 2.50533 6.47469 2.15533 6.18536 1.866C5.90536 1.56733 5.56469 1.418 5.16336 1.418ZM5.47136 8.782C5.91003 8.782 6.27869 8.628 6.57736 8.32C6.87603 8.012 7.02536 7.634 7.02536 7.186C7.02536 6.74733 6.87136 6.374 6.56336 6.066C6.26469 5.758 5.90069 5.604 5.47136 5.604H2.54536V8.782H5.47136Z" fill="#080810"/>
    <path d="M130.981 10.182C129.497 10.182 128.27 9.692 127.299 8.712C126.338 7.732 125.857 6.528 125.857 5.1C125.857 3.672 126.338 2.468 127.299 1.488C128.27 0.507999 129.497 0.0179992 130.981 0.0179992C131.877 0.0179992 132.699 0.232666 133.445 0.661999C134.201 1.09133 134.789 1.67 135.209 2.398L134.075 3.056C133.795 2.51467 133.375 2.08533 132.815 1.768C132.265 1.44133 131.653 1.278 130.981 1.278C129.852 1.278 128.928 1.642 128.209 2.37C127.5 3.098 127.145 4.008 127.145 5.1C127.145 6.18267 127.5 7.088 128.209 7.816C128.928 8.544 129.852 8.908 130.981 8.908C131.653 8.908 132.265 8.74933 132.815 8.432C133.375 8.10533 133.795 7.676 134.075 7.144L135.209 7.788C134.799 8.516 134.215 9.09933 133.459 9.538C132.703 9.96733 131.877 10.182 130.981 10.182Z" fill="#080810"/>
</svg>