<svg xmlns="http://www.w3.org/2000/svg" version="1.1" xmlns:xlink="http://www.w3.org/1999/xlink" width="2700" height="1800"><polygon points="1067, 934.8 1077, 934.8 1077, 715.2 1067, 715.2" fill="#808080"></polygon><polygon points="1097, 934.8 1107, 934.8 1107, 713.2 1097, 713.2" fill="#808080"></polygon><polygon points="1127, 934.8 1137, 934.8 1137, 712.2 1127, 712.2" fill="#808080"></polygon><polygon points="1157, 934.8 1167, 934.8 1167, 711.2 1157, 711.2" fill="#808080"></polygon><polygon points="1187, 934.8 1197, 934.8 1197, 710.2 1187, 710.2" fill="#808080"></polygon><polygon points="1217, 934.8 1227, 934.8 1227, 708.2 1217, 708.2" fill="#808080"></polygon><polygon points="1247, 934.8 1257, 934.8 1257, 707.2 1247, 707.2" fill="#808080"></polygon><polygon points="1277, 934.8 1287, 934.8 1287, 706.2 1277, 706.2" fill="#808080"></polygon><polygon points="1307, 934.8 1317, 934.8 1317, 705.2 1307, 705.2" fill="#808080"></polygon><polygon points="1337, 934.8 1347, 934.8 1347, 703.2 1337, 703.2" fill="#808080"></polygon><polygon points="1367, 934.8 1377, 934.8 1377, 702.2 1367, 702.2" fill="#808080"></polygon><polygon points="1397, 934.8 1407, 934.8 1407, 701.2 1397, 701.2" fill="#808080"></polygon><polygon points="1427, 934.8 1437, 934.8 1437, 700.2 1427, 700.2" fill="#808080"></polygon><polygon points="1457, 934.8 1467, 934.8 1467, 698.2 1457, 698.2" fill="#808080"></polygon><polygon points="1487, 880.8 1497, 880.8 1497, 697.2 1487, 697.2" fill="#808080"></polygon><polygon points="1517, 700.8000000000001 1527, 700.8000000000001 1527, 696.2 1517, 696.2" fill="#808080"></polygon><line x1="1047" y1="874.8" x2="1517" y2="874.8" stroke-width="2" stroke="#000000"></line><line x1="1047" y1="744.8" x2="1367" y2="744.8" stroke-width="2" stroke="#000000"></line><line x1="1047" y1="731.8" x2="1487" y2="731.8000000000001" stroke-width="2" stroke="#000000"></line><line x1="1407" y1="705.8000000000001" x2="1527" y2="705.8000000000001" stroke-width="2" stroke="#000000"></line><rect width="6" height="6" fill="#000000" x="1219" y="871.8"></rect><rect width="6" height="6" fill="#000000" x="1339" y="871.8"></rect><rect width="6" height="6" fill="#000000" x="1159" y="741.8"></rect><rect width="6" height="6" fill="#000000" x="1249" y="741.8"></rect><rect width="6" height="6" fill="#000000" x="1189" y="728.8000000000001"></rect><rect width="6" height="6" fill="#000000" x="1339" y="728.8000000000001"></rect><rect width="6" height="6" fill="#000000" x="1459" y="702.8000000000001"></rect><rect width="6" height="6" fill="#000000" x="1489" y="702.8000000000001"></rect></svg>
