<svg width="198" height="70" viewBox="0 0 198 70" fill="none" xmlns="http://www.w3.org/2000/svg">
    <path fill-rule="evenodd" clip-rule="evenodd" d="M137.846 5H134C128.477 5 124 9.47715 124 15V60C124 65.5228 128.477 70 134 70H164C169.523 70 174 65.5228 174 60V15C174 9.47715 169.523 5 164 5H160.154V7H164C168.418 7 172 10.5817 172 15V60C172 64.4183 168.418 68 164 68H134C129.582 68 126 64.4183 126 60V15C126 10.5817 129.582 7 134 7H137.846V5Z" fill="#AAAAAA"/>
    <path fill-rule="evenodd" clip-rule="evenodd" d="M37.8462 5H34C28.4772 5 24 9.47715 24 15V60C24 65.5228 28.4772 70 34 70H64C69.5228 70 74 65.5228 74 60V15C74 9.47715 69.5228 5 64 5H60.1538V7H64C68.4183 7 72 10.5817 72 15V60C72 64.4183 68.4183 68 64 68H34C29.5817 68 26 64.4183 26 60V15C26 10.5817 29.5817 7 34 7H37.8462V5Z" fill="#AAAAAA"/>
    <rect width="198" height="5" rx="2.5" fill="#AAAAAA"/>
    <rect x="37" width="24" height="11" rx="5" fill="#AAAAAA"/>
    <rect x="137" width="24" height="11" rx="5" fill="#AAAAAA"/>
</svg>
