<svg width="338" height="70" viewBox="0 0 338 70" fill="none" xmlns="http://www.w3.org/2000/svg">
    <path fill-rule="evenodd" clip-rule="evenodd" d="M157.846 5H154C148.477 5 144 9.47715 144 15V60C144 65.5228 148.477 70 154 70H184C189.523 70 194 65.5228 194 60V15C194 9.47715 189.523 5 184 5H180.154V7H184C188.418 7 192 10.5817 192 15V60C192 64.4183 188.418 68 184 68H154C149.582 68 146 64.4183 146 60V15C146 10.5817 149.582 7 154 7H157.846V5Z" fill="#AAAAAA"/>
    <path fill-rule="evenodd" clip-rule="evenodd" d="M277.846 5H274C268.477 5 264 9.47715 264 15V60C264 65.5228 268.477 70 274 70H304C309.523 70 314 65.5228 314 60V15C314 9.47715 309.523 5 304 5H300.154V7H304C308.418 7 312 10.5817 312 15V60C312 64.4183 308.418 68 304 68H274C269.582 68 266 64.4183 266 60V15C266 10.5817 269.582 7 274 7H277.846V5Z" fill="#AAAAAA"/>
    <path fill-rule="evenodd" clip-rule="evenodd" d="M37.8462 5H34C28.4772 5 24 9.47715 24 15V60C24 65.5228 28.4772 70 34 70H64C69.5228 70 74 65.5228 74 60V15C74 9.47715 69.5228 5 64 5H60.1538V7H64C68.4183 7 72 10.5817 72 15V60C72 64.4183 68.4183 68 64 68H34C29.5817 68 26 64.4183 26 60V15C26 10.5817 29.5817 7 34 7H37.8462V5Z" fill="#AAAAAA"/>
    <rect width="338" height="5" rx="2.5" fill="#AAAAAA"/>
    <rect x="37" width="24" height="11" rx="5" fill="#AAAAAA"/>
    <rect x="157" width="24" height="11" rx="5" fill="#AAAAAA"/>
    <rect x="277" width="24" height="11" rx="5" fill="#AAAAAA"/>
</svg>
