<svg width="218" height="70" viewBox="0 0 218 70" fill="none" xmlns="http://www.w3.org/2000/svg">
    <path fill-rule="evenodd" clip-rule="evenodd" d="M97.8462 5H94C88.4772 5 84 9.47715 84 15V60C84 65.5228 88.4772 70 94 70H124C129.523 70 134 65.5228 134 60V15C134 9.47715 129.523 5 124 5H120.154V7H124C128.418 7 132 10.5817 132 15V60C132 64.4183 128.418 68 124 68H94C89.5817 68 86 64.4183 86 60V15C86 10.5817 89.5817 7 94 7H97.8462V5Z" fill="#080810"/>
    <path fill-rule="evenodd" clip-rule="evenodd" d="M157.846 5H154C148.477 5 144 9.47715 144 15V60C144 65.5228 148.477 70 154 70H184C189.523 70 194 65.5228 194 60V15C194 9.47715 189.523 5 184 5H180.154V7H184C188.418 7 192 10.5817 192 15V60C192 64.4183 188.418 68 184 68H154C149.582 68 146 64.4183 146 60V15C146 10.5817 149.582 7 154 7H157.846V5Z" fill="#080810"/>
    <path fill-rule="evenodd" clip-rule="evenodd" d="M37.8462 5H34C28.4772 5 24 9.47715 24 15V60C24 65.5228 28.4772 70 34 70H64C69.5228 70 74 65.5228 74 60V15C74 9.47715 69.5228 5 64 5H60.1538V7H64C68.4183 7 72 10.5817 72 15V60C72 64.4183 68.4183 68 64 68H34C29.5817 68 26 64.4183 26 60V15C26 10.5817 29.5817 7 34 7H37.8462V5Z" fill="#080810"/>
    <rect width="218" height="5" rx="2.5" fill="#AAAAAA"/>
    <rect x="37" width="24" height="11" rx="5" fill="#AAAAAA"/>
    <rect x="97" width="24" height="11" rx="5" fill="#AAAAAA"/>
    <rect x="157" width="24" height="11" rx="5" fill="#AAAAAA"/>
</svg>
