<svg width="163" height="70" viewBox="0 0 163 70" fill="none" xmlns="http://www.w3.org/2000/svg">
    <path fill-rule="evenodd" clip-rule="evenodd" d="M102.846 5H99C93.4772 5 89 9.47715 89 15V60C89 65.5228 93.4772 70 99 70H129C134.523 70 139 65.5228 139 60V15C139 9.47715 134.523 5 129 5H125.154V7H129C133.418 7 137 10.5817 137 15V60C137 64.4183 133.418 68 129 68H99C94.5817 68 91 64.4183 91 60V15C91 10.5817 94.5817 7 99 7H102.846V5Z" fill="#080810"/>
    <path fill-rule="evenodd" clip-rule="evenodd" d="M37.8462 5H34C28.4772 5 24 9.47715 24 15V60C24 65.5228 28.4772 70 34 70H64C69.5228 70 74 65.5228 74 60V15C74 9.47715 69.5228 5 64 5H60.1538V7H64C68.4183 7 72 10.5817 72 15V60C72 64.4183 68.4183 68 64 68H34C29.5817 68 26 64.4183 26 60V15C26 10.5817 29.5817 7 34 7H37.8462V5Z" fill="#080810"/>
    <rect width="163" height="5" rx="2.5" fill="#AAAAAA"/>
    <rect x="37" width="24" height="11" rx="5" fill="#AAAAAA"/>
    <rect x="102" width="24" height="11" rx="5" fill="#AAAAAA"/>
</svg>
