<svg width="168" height="70" viewBox="0 0 168 70" fill="none" xmlns="http://www.w3.org/2000/svg">
    <path fill-rule="evenodd" clip-rule="evenodd" d="M107.846 5H104C98.4772 5 94 9.47715 94 15V60C94 65.5228 98.4772 70 104 70H134C139.523 70 144 65.5228 144 60V15C144 9.47715 139.523 5 134 5H130.154V7H134C138.418 7 142 10.5817 142 15V60C142 64.4183 138.418 68 134 68H104C99.5817 68 96 64.4183 96 60V15C96 10.5817 99.5817 7 104 7H107.846V5Z" fill="#080810"/>
    <path fill-rule="evenodd" clip-rule="evenodd" d="M37.8462 5H34C28.4772 5 24 9.47715 24 15V60C24 65.5228 28.4772 70 34 70H64C69.5228 70 74 65.5228 74 60V15C74 9.47715 69.5228 5 64 5H60.1538V7H64C68.4183 7 72 10.5817 72 15V60C72 64.4183 68.4183 68 64 68H34C29.5817 68 26 64.4183 26 60V15C26 10.5817 29.5817 7 34 7H37.8462V5Z" fill="#080810"/>
    <rect width="168" height="5" rx="2.5" fill="#AAAAAA"/>
    <rect x="37" width="24" height="11" rx="5" fill="#AAAAAA"/>
    <rect x="107" width="24" height="11" rx="5" fill="#AAAAAA"/>
</svg>
