<svg width="173" height="70" viewBox="0 0 173 70" fill="none" xmlns="http://www.w3.org/2000/svg">
    <path fill-rule="evenodd" clip-rule="evenodd" d="M112.846 5H109C103.477 5 99 9.47715 99 15V60C99 65.5228 103.477 70 109 70H139C144.523 70 149 65.5228 149 60V15C149 9.47715 144.523 5 139 5H135.154V7H139C143.418 7 147 10.5817 147 15V60C147 64.4183 143.418 68 139 68H109C104.582 68 101 64.4183 101 60V15C101 10.5817 104.582 7 109 7H112.846V5Z" fill="#080810"/>
    <path fill-rule="evenodd" clip-rule="evenodd" d="M37.8462 5H34C28.4772 5 24 9.47715 24 15V60C24 65.5228 28.4772 70 34 70H64C69.5228 70 74 65.5228 74 60V15C74 9.47715 69.5228 5 64 5H60.1538V7H64C68.4183 7 72 10.5817 72 15V60C72 64.4183 68.4183 68 64 68H34C29.5817 68 26 64.4183 26 60V15C26 10.5817 29.5817 7 34 7H37.8462V5Z" fill="#080810"/>
    <rect width="173" height="5" rx="2.5" fill="#AAAAAA"/>
    <rect x="37" width="24" height="11" rx="5" fill="#AAAAAA"/>
    <rect x="112" width="24" height="11" rx="5" fill="#AAAAAA"/>
</svg>
