<svg width="178" height="70" viewBox="0 0 178 70" fill="none" xmlns="http://www.w3.org/2000/svg">
    <path fill-rule="evenodd" clip-rule="evenodd" d="M117.846 5H114C108.477 5 104 9.47715 104 15V60C104 65.5228 108.477 70 114 70H144C149.523 70 154 65.5228 154 60V15C154 9.47715 149.523 5 144 5H140.154V7H144C148.418 7 152 10.5817 152 15V60C152 64.4183 148.418 68 144 68H114C109.582 68 106 64.4183 106 60V15C106 10.5817 109.582 7 114 7H117.846V5Z" fill="#080810"/>
    <path fill-rule="evenodd" clip-rule="evenodd" d="M37.8462 5H34C28.4772 5 24 9.47715 24 15V60C24 65.5228 28.4772 70 34 70H64C69.5228 70 74 65.5228 74 60V15C74 9.47715 69.5228 5 64 5H60.1538V7H64C68.4183 7 72 10.5817 72 15V60C72 64.4183 68.4183 68 64 68H34C29.5817 68 26 64.4183 26 60V15C26 10.5817 29.5817 7 34 7H37.8462V5Z" fill="#080810"/>
    <rect width="178" height="5" rx="2.5" fill="#AAAAAA"/>
    <rect x="37" width="24" height="11" rx="5" fill="#AAAAAA"/>
    <rect x="117" width="24" height="11" rx="5" fill="#AAAAAA"/>
</svg>
