<svg width="258" height="70" viewBox="0 0 258 70" fill="none" xmlns="http://www.w3.org/2000/svg">
    <path fill-rule="evenodd" clip-rule="evenodd" d="M117.846 5H114C108.477 5 104 9.47715 104 15V60C104 65.5228 108.477 70 114 70H144C149.523 70 154 65.5228 154 60V15C154 9.47715 149.523 5 144 5H140.154V7H144C148.418 7 152 10.5817 152 15V60C152 64.4183 148.418 68 144 68H114C109.582 68 106 64.4183 106 60V15C106 10.5817 109.582 7 114 7H117.846V5Z" fill="#AAAAAA"/>
    <path fill-rule="evenodd" clip-rule="evenodd" d="M197.846 5H194C188.477 5 184 9.47715 184 15V60C184 65.5228 188.477 70 194 70H224C229.523 70 234 65.5228 234 60V15C234 9.47715 229.523 5 224 5H220.154V7H224C228.418 7 232 10.5817 232 15V60C232 64.4183 228.418 68 224 68H194C189.582 68 186 64.4183 186 60V15C186 10.5817 189.582 7 194 7H197.846V5Z" fill="#AAAAAA"/>
    <path fill-rule="evenodd" clip-rule="evenodd" d="M37.8462 5H34C28.4772 5 24 9.47715 24 15V60C24 65.5228 28.4772 70 34 70H64C69.5228 70 74 65.5228 74 60V15C74 9.47715 69.5228 5 64 5H60.1538V7H64C68.4183 7 72 10.5817 72 15V60C72 64.4183 68.4183 68 64 68H34C29.5817 68 26 64.4183 26 60V15C26 10.5817 29.5817 7 34 7H37.8462V5Z" fill="#AAAAAA"/>
    <rect width="258" height="5" rx="2.5" fill="#AAAAAA"/>
    <rect x="37" width="24" height="11" rx="5" fill="#AAAAAA"/>
    <rect x="117" width="24" height="11" rx="5" fill="#AAAAAA"/>
    <rect x="197" width="24" height="11" rx="5" fill="#AAAAAA"/>
</svg>
