<svg width="183" height="70" viewBox="0 0 183 70" fill="none" xmlns="http://www.w3.org/2000/svg">
    <path fill-rule="evenodd" clip-rule="evenodd" d="M122.846 5H119C113.477 5 109 9.47715 109 15V60C109 65.5228 113.477 70 119 70H149C154.523 70 159 65.5228 159 60V15C159 9.47715 154.523 5 149 5H145.154V7H149C153.418 7 157 10.5817 157 15V60C157 64.4183 153.418 68 149 68H119C114.582 68 111 64.4183 111 60V15C111 10.5817 114.582 7 119 7H122.846V5Z" fill="#AAAAAA"/>
    <path fill-rule="evenodd" clip-rule="evenodd" d="M37.8462 5H34C28.4772 5 24 9.47715 24 15V60C24 65.5228 28.4772 70 34 70H64C69.5228 70 74 65.5228 74 60V15C74 9.47715 69.5228 5 64 5H60.1538V7H64C68.4183 7 72 10.5817 72 15V60C72 64.4183 68.4183 68 64 68H34C29.5817 68 26 64.4183 26 60V15C26 10.5817 29.5817 7 34 7H37.8462V5Z" fill="#AAAAAA"/>
    <rect width="183" height="5" rx="2.5" fill="#AAAAAA"/>
    <rect x="37" width="24" height="11" rx="5" fill="#AAAAAA"/>
    <rect x="122" width="24" height="11" rx="5" fill="#AAAAAA"/>
</svg>
